<?xml version="1.0" standalone="no"?>
<!DOCTYPE svg PUBLIC "-//W3C//DTD SVG 20010904//EN"
 "http://www.w3.org/TR/2001/REC-SVG-20010904/DTD/svg10.dtd">
<svg version="1.0" xmlns="http://www.w3.org/2000/svg"
 width="965.000000pt" height="965.000000pt" viewBox="0 0 965.000000 965.000000"
 preserveAspectRatio="xMidYMid meet">
<metadata>
Created by potrace 1.11, written by Peter Selinger 2001-2013
</metadata>
<g transform="translate(0.000000,965.000000) scale(0.100000,-0.100000)"
fill="#000000" stroke="none">
<path d="M2159 8248 c-1 -17 -1 -6829 0 -6845 1 -10 340 -13 1661 -13 1574 0
1660 1 1661 18 0 9 1 238 1 508 l1 491 506 -1 c278 -1 513 2 521 5 13 6 15 73
14 521 l-1 515 475 -1 c260 -1 478 2 484 5 6 4 10 485 10 1405 0 770 -1 1423
-1 1452 l-1 52 -483 0 -484 0 -1 453 c0 248 -1 460 -1 470 -1 16 -33 17 -520
17 l-518 0 -1 468 c0 257 -1 473 -1 480 -1 9 -340 12 -1661 12 -1321 0 -1660
-3 -1661 -12z"/>
</g>
</svg>
