<svg xmlns="http://www.w3.org/2000/svg" viewBox="0 0 40 40"><g id="Layer_2" data-name="Layer 2"><g id="Capa_1" data-name="Capa 1"><path d="M16.1,15.85C16.1,14,14.81,14,14.81,14H9.53V18h5C15.34,18,16.1,17.74,16.1,15.85Z"/><path d="M14.81,20.81H9.53v4.85h5c.76,0,2.16-.26,2.16-2.36C16.73,20.78,14.81,20.81,14.81,20.81Z"/><path d="M28.33,18a3.25,3.25,0,0,0-3.19,2.8h6A2.7,2.7,0,0,0,28.33,18Z"/><path d="M20,0A20,20,0,1,0,40,20,20,20,0,0,0,20,0Zm4.36,11.8h7.49V14H24.36ZM20.58,23.52c0,5.54-5.77,5.36-5.77,5.36H5.37V10.74h9.44c2.87,0,5.14,1.58,5.14,4.83A3.15,3.15,0,0,1,17.18,19C20.83,19,20.58,23.52,20.58,23.52Zm7.79,2.87c3,0,2.91-2,2.91-2h3.19c0,5.18-6.21,4.83-6.21,4.83-7.45,0-7-6.94-7-6.94s0-7,7-7c7.35,0,6.32,7.88,6.32,7.88h-9.4A3,3,0,0,0,28.37,26.39Z"/></g></g></svg>