<svg xmlns="http://www.w3.org/2000/svg" viewBox="0 0 39.94 39.94"><g id="Layer_2" data-name="Layer 2"><g id="Capa_1" data-name="Capa 1"><path d="M23.79,20A3.82,3.82,0,1,1,20,16.15,3.82,3.82,0,0,1,23.79,20Z"/><path d="M28.87,13.17A3.82,3.82,0,0,0,26.69,11a6.25,6.25,0,0,0-2.13-.39c-1.2-.06-1.57-.07-4.63-.07s-3.42,0-4.63.07a6.25,6.25,0,0,0-2.13.39,3.51,3.51,0,0,0-1.32.86A3.64,3.64,0,0,0,11,13.17a6.25,6.25,0,0,0-.39,2.13c-.06,1.21-.07,1.57-.07,4.63s0,3.42.07,4.63A6.25,6.25,0,0,0,11,26.69,3.64,3.64,0,0,0,11.85,28a3.51,3.51,0,0,0,1.32.86,6.25,6.25,0,0,0,2.13.39c1.21.06,1.57.07,4.63.07s3.43,0,4.63-.07a6.25,6.25,0,0,0,2.13-.39,3.83,3.83,0,0,0,2.18-2.18,6.25,6.25,0,0,0,.39-2.13c.06-1.21.07-1.57.07-4.63s0-3.42-.07-4.63A6.25,6.25,0,0,0,28.87,13.17ZM19.93,25.82a5.89,5.89,0,1,1,5.89-5.89A5.89,5.89,0,0,1,19.93,25.82Zm6.12-10.64a1.38,1.38,0,0,1,0-2.75,1.38,1.38,0,1,1,0,2.75Z"/><path d="M20,0a20,20,0,1,0,20,20A20,20,0,0,0,20,0Zm11.4,24.7a8.32,8.32,0,0,1-.54,2.78,5.82,5.82,0,0,1-3.35,3.35,8.32,8.32,0,0,1-2.78.54c-1.23.05-1.62.07-4.73.07s-3.51,0-4.73-.07a8.32,8.32,0,0,1-2.78-.54A5.89,5.89,0,0,1,9.1,27.48a8.61,8.61,0,0,1-.53-2.78C8.52,23.47,8.5,23.08,8.5,20s0-3.51.07-4.73a8.61,8.61,0,0,1,.53-2.78A5.95,5.95,0,0,1,12.46,9.1a8.61,8.61,0,0,1,2.78-.53c1.22-.05,1.62-.07,4.73-.07s3.5,0,4.73.07a8.61,8.61,0,0,1,2.78.53,5.89,5.89,0,0,1,3.35,3.36,8.32,8.32,0,0,1,.54,2.78c.05,1.22.07,1.61.07,4.73S31.42,23.47,31.37,24.7Z"/></g></g></svg>